<svg width="139" height="288" viewBox="0 0 139 288" fill="none" xmlns="http://www.w3.org/2000/svg">
<path d="M68.9766 287.906C23.8594 287.906 0.421875 263.297 0.421875 223.844V66.4219C0.421875 25.7969 25.2266 0.015625 69.9531 0.015625C113.898 0.015625 138.508 24.625 138.508 66.4219V106.266H78.9375V59.3906C78.9375 53.5312 76.0078 48.8438 69.9531 48.8438C63.8984 48.8438 60.9688 53.3359 60.9688 59.3906V228.727C60.9688 234.586 63.7031 239.078 69.9531 239.078C75.8125 239.078 78.9375 234.586 78.9375 228.727V174.43H138.508V223.844C138.508 262.516 114.484 287.906 68.9766 287.906Z" fill="#FE6807"/>
</svg>
